<svg xmlns="http://www.w3.org/2000/svg" width="144" height="24" viewBox="0 0 144 24" shape-rendering="crispEdges">
  <defs>
    <g id="frame-a">
      <rect x="11" y="3" width="1" height="2" fill="#7b9a5c"/>
      <rect x="8" y="5" width="8" height="2" fill="#ce7a5a"/>
      <rect x="7" y="7" width="10" height="2" fill="#ce7a5a"/>
      <rect x="5" y="9" width="14" height="2" fill="#ce7a5a"/>
      <rect x="7" y="11" width="10" height="2" fill="#ce7a5a"/>
      <rect x="8" y="13" width="9" height="2" fill="#ce7a5a"/>
      <rect x="9" y="15" width="2" height="5" fill="#ce7a5a"/>
      <rect x="12" y="15" width="2" height="5" fill="#ce7a5a"/>
      <rect x="15" y="15" width="2" height="4" fill="#ce7a5a"/>
      <rect x="14" y="7" width="2" height="1" fill="#7b9a5c"/>
      <rect x="9" y="9" width="1" height="1" fill="#111111"/>
      <rect x="13" y="9" width="1" height="1" fill="#111111"/>
    </g>
    <g id="frame-b">
      <rect x="11" y="4" width="1" height="2" fill="#7b9a5c"/>
      <rect x="8" y="6" width="8" height="2" fill="#ce7a5a"/>
      <rect x="7" y="8" width="10" height="2" fill="#ce7a5a"/>
      <rect x="5" y="10" width="14" height="2" fill="#ce7a5a"/>
      <rect x="7" y="12" width="10" height="2" fill="#ce7a5a"/>
      <rect x="8" y="14" width="9" height="2" fill="#ce7a5a"/>
      <rect x="9" y="16" width="2" height="4" fill="#ce7a5a"/>
      <rect x="12" y="16" width="2" height="4" fill="#ce7a5a"/>
      <rect x="15" y="16" width="2" height="3" fill="#ce7a5a"/>
      <rect x="14" y="8" width="2" height="1" fill="#7b9a5c"/>
      <rect x="9" y="10" width="1" height="1" fill="#111111"/>
      <rect x="13" y="10" width="1" height="1" fill="#111111"/>
    </g>
  </defs>
  <use href="#frame-a" x="0" y="0"/>
  <use href="#frame-b" x="24" y="0"/>
  <use href="#frame-a" x="48" y="0"/>
  <use href="#frame-b" x="72" y="0"/>
  <use href="#frame-a" x="96" y="0"/>
  <use href="#frame-b" x="120" y="0"/>
</svg>
